<?xml version="1.0" encoding="utf-8"?>
<!-- Generator: Adobe Illustrator 22.0.0, SVG Export Plug-In . SVG Version: 6.00 Build 0)  -->
<svg version="1.1" id="Layer_1" xmlns="http://www.w3.org/2000/svg" xmlns:xlink="http://www.w3.org/1999/xlink" x="0px" y="0px"
	 viewBox="0 0 835.1 113.4" style="enable-background:new 0 0 835.1 113.4;" xml:space="preserve">
<style type="text/css">
	.st0{fill:#19D48B;}
	.st1{fill:#FFFFFF;}
	.st2{fill:#AAAAAA;}
</style>
<g>
	<polygon class="st1" points="0,0 0,113.4 48.6,113.4 48.6,81 78,81 78,64.8 48.6,64.8 48.6,48.6 81,48.6 81,32.4 32.4,32.4 
		32.4,97.2 16.2,97.2 16.2,16.2 97.2,16.2 97.2,97.2 64.8,97.2 64.8,113.4 113.4,113.4 113.4,0 	"/>
	<g>
		<g>
			<path class="st1" d="M194.9,53.2v10.2h-21.4V83h-11.4V31.8h38.3V42h-26.9v11.3H194.9z"/>
			<path class="st1" d="M230,47.4v9.9h-0.4c-1.5-1.1-3.5-1.7-5.7-1.7c-6.2,0-8.9,3.8-8.9,11.9V83h-10.1V46.7h8.4l0.5,5.6h0.2
				c2-4.2,5.5-6.4,10.8-6.4C227,46,229,46.5,230,47.4z"/>
			<path class="st1" d="M262.1,83l-0.3-4.9h-0.2c-2.4,3.5-6.4,5.6-11.8,5.6c-10.3,0-17.7-7.9-17.7-18.9S239.6,46,249.8,46
				c5.3,0,9.4,2,11.7,5.5h0.2l0.4-4.7h8.4V83H262.1z M260.7,64.9c0-5.9-3.8-9.9-9.2-9.9c-5.5,0-9.2,4.1-9.2,9.9s3.8,9.9,9.2,9.9
				C256.9,74.8,260.7,70.7,260.7,64.9z"/>
			<path class="st1" d="M335,61.4V83h-10.1V62.5c0-5-2.2-7.6-6.1-7.6c-4.5,0-6.8,3-6.8,9.4V83H302V62.5c0-5-2.2-7.6-6.2-7.6
				c-4.5,0-6.8,3-6.8,8.6V83h-10.1V46.7h8.4l0.4,4.9h0.2c2.1-3.6,5.7-5.6,10.6-5.6c4.9,0,8.8,2.1,11,5.9h0.2c2.2-4,6-5.9,11.9-5.9
				C330.2,46,335,51.5,335,61.4z"/>
			<path class="st1" d="M350.7,67.4c1.1,4.9,5.5,7.6,11.8,7.6c5.2,0,9.7-1.5,12.6-4.4h0.4v9.7c-3,2.2-7.9,3.4-13.5,3.4
				c-12.8,0-21.5-7.7-21.5-18.9c0-11.1,7.9-18.9,18.9-18.9c11.3,0,18.3,6.7,18.3,17.3v4.1H350.7z M350.7,61.3h17.9
				c-0.7-4.4-4.1-6.6-8.9-6.6C355.4,54.7,351.7,57.1,350.7,61.3z"/>
		</g>
		<g>
			<path class="st1" d="M424.3,83h-11.4V42h-15.3V31.8h41.9V42h-15.2V83z"/>
			<path class="st1" d="M446.4,67.4c1.1,4.9,5.6,7.6,11.8,7.6c5.2,0,9.7-1.5,12.6-4.4h0.4v9.7c-3,2.2-7.9,3.4-13.5,3.4
				c-12.8,0-21.5-7.7-21.5-18.9c0-11.1,7.9-18.9,18.9-18.9c11.3,0,18.3,6.7,18.3,17.3v4.1H446.4z M446.4,61.3h17.9
				c-0.7-4.4-4.1-6.6-8.9-6.6C451.1,54.7,447.4,57.1,446.4,61.3z"/>
			<path class="st1" d="M508.5,48.7v10.8h-0.4c-2.4-3.1-5.6-4.5-9.8-4.5c-6.6,0-10.6,3.9-10.6,9.9c0,6,4,9.9,10.6,9.9
				c4.2,0,7.5-1.5,9.8-4.6h0.4V81c-2.6,1.9-6.2,2.7-11.3,2.7c-11.8,0-19.7-7.8-19.7-18.9S485.5,46,497.3,46
				C502.3,46,505.7,46.8,508.5,48.7z"/>
			<path class="st1" d="M550,61.5V83h-10.1V62.7c0-5-2.5-7.8-6.7-7.8c-4.7,0-7.5,3.2-7.5,8.8V83h-10.1V29h10.1v21h0.2
				c2.3-2.7,5.7-4.1,10-4.1C544.7,46,550,51.7,550,61.5z"/>
			<path class="st1" d="M591.9,61.5V83h-10.1V62.7c0-5-2.5-7.8-6.7-7.8c-4.7,0-7.5,3.2-7.5,8.8V83h-10.1V46.7h8.4l0.4,5.2h0.2
				c2.2-3.8,6.1-5.9,11.3-5.9C586.7,46,591.9,51.7,591.9,61.5z"/>
			<path class="st1" d="M636.2,64.9c0,11-8,18.9-19.3,18.9c-11.4,0-19.4-7.9-19.4-18.9c0-11.1,8-18.9,19.4-18.9
				C628.2,46,636.2,53.8,636.2,64.9z M607.6,64.9c0,5.9,3.8,9.9,9.2,9.9c5.4,0,9.2-4.1,9.2-9.9s-3.8-9.9-9.2-9.9
				C611.4,54.9,607.6,59,607.6,64.9z"/>
			<path class="st1" d="M642.4,29h10.1v54h-10.1V29z"/>
			<path class="st1" d="M697.4,64.9c0,11-8,18.9-19.4,18.9c-11.4,0-19.4-7.9-19.4-18.9c0-11.1,8-18.9,19.4-18.9
				C689.4,46,697.4,53.8,697.4,64.9z M668.8,64.9c0,5.9,3.8,9.9,9.2,9.9c5.4,0,9.2-4.1,9.2-9.9s-3.8-9.9-9.2-9.9
				C672.6,54.9,668.8,59,668.8,64.9z"/>
			<path class="st1" d="M739.9,80c0,11.3-7.6,18.3-20.2,18.3c-6.1,0-11.3-1.5-14.6-3.9V84.3h0.4c2.7,3.2,7.6,5.2,13,5.2
				c7.2,0,11.3-3.6,11.3-10v-0.2h-0.2c-2.5,2.5-5.9,3.9-10.4,3.9c-10.3,0-17.7-7.6-17.7-18.6c0-10.9,7.5-18.6,17.7-18.6
				c5.4,0,9.4,2,11.8,5.5h0.2l0.3-4.8h8.4V80z M730.1,64.5c0-5.9-3.8-9.6-9.2-9.6c-5.5,0-9.2,3.8-9.2,9.6c0,5.9,3.8,9.6,9.2,9.6
				C726.3,74.2,730.1,70.4,730.1,64.5z"/>
			<path class="st1" d="M759.5,35.5c0,3.7-2.6,6.2-6.2,6.2c-3.6,0-6.2-2.5-6.2-6.2c0-3.6,2.6-6.2,6.2-6.2
				C756.8,29.3,759.5,31.9,759.5,35.5z M748.1,46.7h10.1V83h-10.1V46.7z"/>
			<path class="st1" d="M774.7,67.4c1.1,4.9,5.6,7.6,11.8,7.6c5.2,0,9.7-1.5,12.6-4.4h0.4v9.7c-3,2.2-7.9,3.4-13.5,3.4
				c-12.8,0-21.5-7.7-21.5-18.9c0-11.1,7.9-18.9,18.9-18.9c11.3,0,18.3,6.7,18.3,17.3v4.1H774.7z M774.7,61.3h17.9
				c-0.7-4.4-4.1-6.6-8.9-6.6C779.4,54.7,775.7,57.1,774.7,61.3z"/>
			<path class="st1" d="M832.7,48.3v9.6h-0.4c-2.4-2.4-6.1-3.6-10.8-3.6c-3.9,0-5.9,1.2-5.9,3.4c0,1.6,1.2,2.3,6,2.6
				c9.6,0.6,13.4,4,13.4,11.6c0,7.4-5.5,11.8-14.9,11.8c-6,0-10.6-1.1-13.7-3.2v-9.7h0.5c2.9,3.1,7.2,4.6,12.8,4.6
				c3.9,0,5.9-1.2,5.9-3.5c0-1.9-1.5-2.7-6.6-3.2c-9.2-0.8-12.8-3.6-12.8-10.8c0-7.3,5.9-12,15.1-12C825.7,46,829.9,46.8,832.7,48.3
				z"/>
		</g>
	</g>
</g>
</svg>
