<svg width="254" height="256" viewBox="0 0 254 256" fill="none" xmlns="http://www.w3.org/2000/svg">
<path d="M2.20717 11.9654C2.20717 6.44449 6.68141 1.97028 12.2024 1.97028L106.941 1.97029C116.071 1.97029 118.052 14.8215 109.344 17.5626V17.5626C108.007 17.9836 106.804 18.7497 105.857 19.7836L39.2521 92.5143C38.5627 93.2671 37.9927 94.1211 37.562 95.0465L21.2737 130.041C16.7571 139.745 2.20716 136.519 2.20716 125.813L2.20717 11.9654Z" fill="white"/>
<path d="M253.268 128.985C253.268 199.133 197.066 256 127.738 256C58.4091 256 2.20715 199.133 2.20715 128.985C2.20715 58.8368 58.4091 1.97028 127.738 1.97028C197.066 1.97028 253.268 58.8368 253.268 128.985Z" fill="white"/>
<ellipse cx="127.5" cy="128.5" rx="91.5" ry="89.5" fill="#0F0E0E"/>
<circle cx="127" cy="128" r="63" fill="white"/>
<circle cx="127" cy="128" r="40" fill="#0F0E0E"/>
</svg>
